<svg width="317" height="105" viewBox="0 0 317 105" fill="none" xmlns="http://www.w3.org/2000/svg">
<path d="M0 24C0 10.7452 10.7452 0 24 0H293C306.255 0 317 10.7452 317 24V81C317 94.2548 306.255 105 293 105H24C10.7452 105 0 94.2548 0 81V24Z" fill="#0A3871"/>
<path d="M107.077 50C106.646 47.6136 104.737 46.2045 102.396 46.2045C99.4183 46.2045 97.2592 48.5 97.2592 52.1818C97.2592 55.8636 99.4183 58.1591 102.396 58.1591C104.737 58.1591 106.646 56.75 107.077 54.3636H105.668C105.327 55.9773 103.941 56.8409 102.396 56.8409C100.282 56.8409 98.6229 55.2045 98.6229 52.1818C98.6229 49.1591 100.282 47.5227 102.396 47.5227C103.941 47.5227 105.327 48.3864 105.668 50H107.077ZM112.718 58.1818C115.082 58.1818 116.673 56.3864 116.673 53.6818C116.673 50.9545 115.082 49.1591 112.718 49.1591C110.354 49.1591 108.763 50.9545 108.763 53.6818C108.763 56.3864 110.354 58.1818 112.718 58.1818ZM112.718 56.9773C110.923 56.9773 110.104 55.4318 110.104 53.6818C110.104 51.9318 110.923 50.3636 112.718 50.3636C114.513 50.3636 115.332 51.9318 115.332 53.6818C115.332 55.4318 114.513 56.9773 112.718 56.9773ZM118.719 58H120.06V52.5455C120.06 51.267 120.992 50.3636 122.038 50.3636C123.055 50.3636 123.765 51.0284 123.765 52.0227V58H125.129V52.3182C125.129 51.1932 125.833 50.3636 127.06 50.3636C128.015 50.3636 128.833 50.8693 128.833 52.1591V58H130.174V52.1591C130.174 50.108 129.072 49.1591 127.515 49.1591C126.265 49.1591 125.35 49.733 124.901 50.6364H124.81C124.379 49.7045 123.617 49.1591 122.469 49.1591C121.333 49.1591 120.492 49.7045 120.129 50.6364H120.015V49.2727H118.719V58ZM136.285 58.1818C138.058 58.1818 139.353 57.2955 139.762 55.9773L138.467 55.6136C138.126 56.5227 137.336 56.9773 136.285 56.9773C134.711 56.9773 133.626 55.9602 133.563 54.0909H139.898V53.5227C139.898 50.2727 137.967 49.1591 136.148 49.1591C133.785 49.1591 132.217 51.0227 132.217 53.7045C132.217 56.3864 133.762 58.1818 136.285 58.1818ZM133.563 52.9318C133.654 51.5739 134.614 50.3636 136.148 50.3636C137.603 50.3636 138.535 51.4545 138.535 52.9318H133.563ZM145.921 58.1591C147.609 57.9943 148.705 56.8807 148.915 55.4545H147.575C147.325 56.4091 146.529 56.9773 145.484 56.9773C143.893 56.9773 142.87 55.6591 142.87 53.6364C142.87 51.6591 143.915 50.3636 145.484 50.3636C146.665 50.3636 147.37 51.0909 147.575 51.8864H148.915C148.688 50.25 147.302 49.1591 145.461 49.1591C143.097 49.1591 141.529 51.0227 141.529 53.6818C141.529 56.0455 142.756 57.8182 144.813 58.1307L144.62 59.0682C145.484 59.1364 145.847 59.2727 145.847 59.7955C145.847 60.3182 145.325 60.5227 144.62 60.5227L144.665 61.4091C146.234 61.4091 147.052 60.7273 147.052 59.75C147.052 58.8636 146.461 58.5 145.87 58.4091L145.921 58.1591ZM153.444 58.2045C154.967 58.2045 155.762 57.3864 156.035 56.8182H156.103V58H157.444V52.25C157.444 49.4773 155.33 49.1591 154.217 49.1591C152.898 49.1591 151.398 49.6136 150.717 51.2045L151.989 51.6591C152.285 51.0227 152.984 50.3409 154.262 50.3409C155.495 50.3409 156.103 50.9943 156.103 52.1136V52.1591C156.103 52.8068 155.444 52.75 153.853 52.9545C152.234 53.1648 150.467 53.5227 150.467 55.5227C150.467 57.2273 151.785 58.2045 153.444 58.2045ZM153.648 57C152.58 57 151.808 56.5227 151.808 55.5909C151.808 54.5682 152.739 54.25 153.785 54.1136C154.353 54.0455 155.876 53.8864 156.103 53.6136V54.8409C156.103 55.9318 155.239 57 153.648 57ZM159.891 58H161.232V52.4773C161.232 51.2955 162.164 50.4318 163.437 50.4318C163.795 50.4318 164.164 50.5 164.255 50.5227V49.1591C164.102 49.1477 163.749 49.1364 163.55 49.1364C162.505 49.1364 161.596 49.7273 161.278 50.5909H161.187V49.2727H159.891V58ZM172.913 58.2045C174.435 58.2045 175.231 57.3864 175.504 56.8182H175.572V58H176.913V52.25C176.913 49.4773 174.799 49.1591 173.685 49.1591C172.367 49.1591 170.867 49.6136 170.185 51.2045L171.458 51.6591C171.754 51.0227 172.452 50.3409 173.731 50.3409C174.964 50.3409 175.572 50.9943 175.572 52.1136V52.1591C175.572 52.8068 174.913 52.75 173.322 52.9545C171.702 53.1648 169.935 53.5227 169.935 55.5227C169.935 57.2273 171.254 58.2045 172.913 58.2045ZM173.117 57C172.049 57 171.276 56.5227 171.276 55.5909C171.276 54.5682 172.208 54.25 173.254 54.1136C173.822 54.0455 175.344 53.8864 175.572 53.6136V54.8409C175.572 55.9318 174.708 57 173.117 57ZM183.86 49.2727V58.6364C183.86 59.5227 183.496 60.0227 182.678 60.0227H182.428V61.2727H182.701C184.383 61.2727 185.201 60.25 185.201 58.6364V49.2727H183.86ZM184.519 47.8182C185.042 47.8182 185.474 47.4091 185.474 46.9091C185.474 46.4091 185.042 46 184.519 46C183.996 46 183.565 46.4091 183.565 46.9091C183.565 47.4091 183.996 47.8182 184.519 47.8182ZM191.202 58.1818C193.566 58.1818 195.157 56.3864 195.157 53.6818C195.157 50.9545 193.566 49.1591 191.202 49.1591C188.839 49.1591 187.248 50.9545 187.248 53.6818C187.248 56.3864 188.839 58.1818 191.202 58.1818ZM191.202 56.9773C189.407 56.9773 188.589 55.4318 188.589 53.6818C188.589 51.9318 189.407 50.3636 191.202 50.3636C192.998 50.3636 193.816 51.9318 193.816 53.6818C193.816 55.4318 192.998 56.9773 191.202 56.9773ZM200.727 61.4545C202.817 61.4545 204.499 60.5 204.499 58.25V49.2727H203.204V50.6591H203.067C202.772 50.2045 202.227 49.1591 200.522 49.1591C198.317 49.1591 196.795 50.9091 196.795 53.5909C196.795 56.3182 198.386 57.8636 200.499 57.8636C202.204 57.8636 202.749 56.8636 203.045 56.3864H203.158V58.1591C203.158 59.6136 202.136 60.2727 200.727 60.2727C199.141 60.2727 198.585 59.4375 198.227 58.9545L197.158 59.7045C197.704 60.6193 198.778 61.4545 200.727 61.4545ZM200.681 56.6591C198.999 56.6591 198.136 55.3864 198.136 53.5682C198.136 51.7955 198.977 50.3636 200.681 50.3636C202.317 50.3636 203.181 51.6818 203.181 53.5682C203.181 55.5 202.295 56.6591 200.681 56.6591ZM209.522 58.2045C211.045 58.2045 211.84 57.3864 212.113 56.8182H212.181V58H213.522V52.25C213.522 49.4773 211.408 49.1591 210.295 49.1591C208.977 49.1591 207.477 49.6136 206.795 51.2045L208.067 51.6591C208.363 51.0227 209.062 50.3409 210.34 50.3409C211.573 50.3409 212.181 50.9943 212.181 52.1136V52.1591C212.181 52.8068 211.522 52.75 209.931 52.9545C208.312 53.1648 206.545 53.5227 206.545 55.5227C206.545 57.2273 207.863 58.2045 209.522 58.2045ZM209.727 57C208.658 57 207.886 56.5227 207.886 55.5909C207.886 54.5682 208.817 54.25 209.863 54.1136C210.431 54.0455 211.954 53.8864 212.181 53.6136V54.8409C212.181 55.9318 211.317 57 209.727 57ZM215.969 58H217.31V52.4773C217.31 51.2955 218.242 50.4318 219.515 50.4318C219.873 50.4318 220.242 50.5 220.333 50.5227V49.1591C220.18 49.1477 219.827 49.1364 219.629 49.1364C218.583 49.1364 217.674 49.7273 217.356 50.5909H217.265V49.2727H215.969V58Z" fill="white"/>
</svg>
