<svg width="317" height="102" viewBox="0 0 317 102" fill="none" xmlns="http://www.w3.org/2000/svg">
<path d="M70.1442 58L71.3146 54.7045H76.0192L77.1896 58H78.6669L74.3942 46.3636H72.9396L68.6669 58H70.1442ZM71.7578 53.4545L73.6214 48.2045H73.7124L75.576 53.4545H71.7578ZM83.593 58.1818C85.2749 58.1818 85.843 57.1364 86.1385 56.6591H86.2976V58H87.593V46.3636H86.2521V50.6591H86.1385C85.843 50.2045 85.3203 49.1591 83.6158 49.1591C81.4112 49.1591 79.8885 50.9091 79.8885 53.6591C79.8885 56.4318 81.4112 58.1818 83.593 58.1818ZM83.7749 56.9773C82.093 56.9773 81.2294 55.5 81.2294 53.6364C81.2294 51.7955 82.0703 50.3636 83.7749 50.3636C85.4112 50.3636 86.2749 51.6818 86.2749 53.6364C86.2749 55.6136 85.3885 56.9773 83.7749 56.9773ZM90.2351 58H91.576V49.2727H90.2351V58ZM90.9169 47.8182C91.4396 47.8182 91.8714 47.4091 91.8714 46.9091C91.8714 46.4091 91.4396 46 90.9169 46C90.3942 46 89.9624 46.4091 89.9624 46.9091C89.9624 47.4091 90.3942 47.8182 90.9169 47.8182ZM97.5774 58.1818C99.5092 58.1818 100.782 57 101.009 55.4545H99.6683C99.4183 56.4091 98.6229 56.9773 97.5774 56.9773C95.9865 56.9773 94.9638 55.6591 94.9638 53.6364C94.9638 51.6591 96.0092 50.3636 97.5774 50.3636C98.7592 50.3636 99.4638 51.0909 99.6683 51.8864H101.009C100.782 50.25 99.3956 49.1591 97.5547 49.1591C95.1911 49.1591 93.6229 51.0227 93.6229 53.6818C93.6229 56.2955 95.1229 58.1818 97.5774 58.1818ZM102.969 58H104.31V49.2727H102.969V58ZM103.651 47.8182C104.174 47.8182 104.606 47.4091 104.606 46.9091C104.606 46.4091 104.174 46 103.651 46C103.129 46 102.697 46.4091 102.697 46.9091C102.697 47.4091 103.129 47.8182 103.651 47.8182ZM110.312 58.1818C112.244 58.1818 113.516 57 113.744 55.4545H112.403C112.153 56.4091 111.357 56.9773 110.312 56.9773C108.721 56.9773 107.698 55.6591 107.698 53.6364C107.698 51.6591 108.744 50.3636 110.312 50.3636C111.494 50.3636 112.198 51.0909 112.403 51.8864H113.744C113.516 50.25 112.13 49.1591 110.289 49.1591C107.925 49.1591 106.357 51.0227 106.357 53.6818C106.357 56.2955 107.857 58.1818 110.312 58.1818ZM119.249 58.1818C121.613 58.1818 123.204 56.3864 123.204 53.6818C123.204 50.9545 121.613 49.1591 119.249 49.1591C116.886 49.1591 115.295 50.9545 115.295 53.6818C115.295 56.3864 116.886 58.1818 119.249 58.1818ZM119.249 56.9773C117.454 56.9773 116.636 55.4318 116.636 53.6818C116.636 51.9318 117.454 50.3636 119.249 50.3636C121.045 50.3636 121.863 51.9318 121.863 53.6818C121.863 55.4318 121.045 56.9773 119.249 56.9773ZM126.592 52.75C126.592 51.2273 127.535 50.3636 128.819 50.3636C130.063 50.3636 130.819 51.1761 130.819 52.5455V58H132.16V52.4545C132.16 50.2273 130.972 49.1591 129.205 49.1591C127.887 49.1591 127.069 49.75 126.66 50.6364H126.546V49.2727H125.251V58H126.592V52.75ZM137.178 58.2045C138.701 58.2045 139.496 57.3864 139.769 56.8182H139.837V58H141.178V52.25C141.178 49.4773 139.065 49.1591 137.951 49.1591C136.633 49.1591 135.133 49.6136 134.451 51.2045L135.724 51.6591C136.019 51.0227 136.718 50.3409 137.996 50.3409C139.229 50.3409 139.837 50.9943 139.837 52.1136V52.1591C139.837 52.8068 139.178 52.75 137.587 52.9545C135.968 53.1648 134.201 53.5227 134.201 55.5227C134.201 57.2273 135.519 58.2045 137.178 58.2045ZM137.383 57C136.315 57 135.542 56.5227 135.542 55.5909C135.542 54.5682 136.474 54.25 137.519 54.1136C138.087 54.0455 139.61 53.8864 139.837 53.6136V54.8409C139.837 55.9318 138.974 57 137.383 57ZM143.626 58H144.967V52.4773C144.967 51.2955 145.898 50.4318 147.171 50.4318C147.529 50.4318 147.898 50.5 147.989 50.5227V49.1591C147.836 49.1477 147.484 49.1364 147.285 49.1364C146.239 49.1364 145.33 49.7273 145.012 50.5909H144.921V49.2727H143.626V58ZM155.42 52.75C155.42 51.2273 156.363 50.3636 157.647 50.3636C158.891 50.3636 159.647 51.1761 159.647 52.5455V58H160.988V52.4545C160.988 50.2273 159.8 49.1591 158.033 49.1591C156.715 49.1591 155.897 49.75 155.488 50.6364H155.374V49.2727H154.079V58H155.42V52.75ZM166.984 58.1818C169.347 58.1818 170.938 56.3864 170.938 53.6818C170.938 50.9545 169.347 49.1591 166.984 49.1591C164.62 49.1591 163.029 50.9545 163.029 53.6818C163.029 56.3864 164.62 58.1818 166.984 58.1818ZM166.984 56.9773C165.188 56.9773 164.37 55.4318 164.37 53.6818C164.37 51.9318 165.188 50.3636 166.984 50.3636C168.779 50.3636 169.597 51.9318 169.597 53.6818C169.597 55.4318 168.779 56.9773 166.984 56.9773ZM179.809 49.2727H178.354L175.945 56.2273H175.854L173.445 49.2727H171.991L175.218 58H176.582L179.809 49.2727ZM183.881 58.2045C185.404 58.2045 186.2 57.3864 186.472 56.8182H186.54V58H187.881V52.25C187.881 49.4773 185.768 49.1591 184.654 49.1591C183.336 49.1591 181.836 49.6136 181.154 51.2045L182.427 51.6591C182.722 51.0227 183.421 50.3409 184.7 50.3409C185.933 50.3409 186.54 50.9943 186.54 52.1136V52.1591C186.54 52.8068 185.881 52.75 184.29 52.9545C182.671 53.1648 180.904 53.5227 180.904 55.5227C180.904 57.2273 182.222 58.2045 183.881 58.2045ZM184.086 57C183.018 57 182.245 56.5227 182.245 55.5909C182.245 54.5682 183.177 54.25 184.222 54.1136C184.79 54.0455 186.313 53.8864 186.54 53.6136V54.8409C186.54 55.9318 185.677 57 184.086 57ZM194.829 61.2727H196.17V56.6591H196.283C196.579 57.1364 197.147 58.1818 198.829 58.1818C201.011 58.1818 202.533 56.4318 202.533 53.6591C202.533 50.9091 201.011 49.1591 198.806 49.1591C197.102 49.1591 196.579 50.2045 196.283 50.6591H196.124V49.2727H194.829V61.2727ZM196.147 53.6364C196.147 51.6818 197.011 50.3636 198.647 50.3636C200.352 50.3636 201.192 51.7955 201.192 53.6364C201.192 55.5 200.329 56.9773 198.647 56.9773C197.033 56.9773 196.147 55.6136 196.147 53.6364ZM207.147 58.2045C208.67 58.2045 209.465 57.3864 209.738 56.8182H209.806V58H211.147V52.25C211.147 49.4773 209.033 49.1591 207.92 49.1591C206.602 49.1591 205.102 49.6136 204.42 51.2045L205.692 51.6591C205.988 51.0227 206.687 50.3409 207.965 50.3409C209.198 50.3409 209.806 50.9943 209.806 52.1136V52.1591C209.806 52.8068 209.147 52.75 207.556 52.9545C205.937 53.1648 204.17 53.5227 204.17 55.5227C204.17 57.2273 205.488 58.2045 207.147 58.2045ZM207.352 57C206.283 57 205.511 56.5227 205.511 55.5909C205.511 54.5682 206.442 54.25 207.488 54.1136C208.056 54.0455 209.579 53.8864 209.806 53.6136V54.8409C209.806 55.9318 208.942 57 207.352 57ZM214.935 46.3636H213.594V58H214.935V46.3636ZM219.96 58.2045C221.482 58.2045 222.278 57.3864 222.55 56.8182H222.619V58H223.96V52.25C223.96 49.4773 221.846 49.1591 220.732 49.1591C219.414 49.1591 217.914 49.6136 217.232 51.2045L218.505 51.6591C218.8 51.0227 219.499 50.3409 220.778 50.3409C222.011 50.3409 222.619 50.9943 222.619 52.1136V52.1591C222.619 52.8068 221.96 52.75 220.369 52.9545C218.749 53.1648 216.982 53.5227 216.982 55.5227C216.982 57.2273 218.3 58.2045 219.96 58.2045ZM220.164 57C219.096 57 218.323 56.5227 218.323 55.5909C218.323 54.5682 219.255 54.25 220.3 54.1136C220.869 54.0455 222.391 53.8864 222.619 53.6136V54.8409C222.619 55.9318 221.755 57 220.164 57ZM233.231 49.2727H231.776L229.367 56.2273H229.276L226.867 49.2727H225.413L228.64 58H230.004L233.231 49.2727ZM235.001 58H236.342V52.4773C236.342 51.2955 237.273 50.4318 238.546 50.4318C238.904 50.4318 239.273 50.5 239.364 50.5227V49.1591C239.211 49.1477 238.859 49.1364 238.66 49.1364C237.614 49.1364 236.705 49.7273 236.387 50.5909H236.296V49.2727H235.001V58ZM243.522 58.2045C245.045 58.2045 245.84 57.3864 246.113 56.8182H246.181V58H247.522V52.25C247.522 49.4773 245.408 49.1591 244.295 49.1591C242.977 49.1591 241.477 49.6136 240.795 51.2045L242.067 51.6591C242.363 51.0227 243.062 50.3409 244.34 50.3409C245.573 50.3409 246.181 50.9943 246.181 52.1136V52.1591C246.181 52.8068 245.522 52.75 243.931 52.9545C242.312 53.1648 240.545 53.5227 240.545 55.5227C240.545 57.2273 241.863 58.2045 243.522 58.2045ZM243.727 57C242.658 57 241.886 56.5227 241.886 55.5909C241.886 54.5682 242.817 54.25 243.863 54.1136C244.431 54.0455 245.954 53.8864 246.181 53.6136V54.8409C246.181 55.9318 245.317 57 243.727 57Z" fill="#0A3871"/>
<path d="M24 1H293V-1H24V1ZM316 24V78H318V24H316ZM293 101H24V103H293V101ZM1 78V24H-1V78H1ZM24 101C11.2974 101 1 90.7026 1 78H-1C-1 91.8071 10.1929 103 24 103V101ZM316 78C316 90.7026 305.703 101 293 101V103C306.807 103 318 91.8071 318 78H316ZM293 1C305.703 1 316 11.2975 316 24H318C318 10.1929 306.807 -1 293 -1V1ZM24 -1C10.1929 -1 -1 10.1929 -1 24H1C1 11.2975 11.2975 1 24 1V-1Z" fill="#0A3871"/>
</svg>
